<svg width="72" height="72" viewBox="0 0 72 72" fill="none" xmlns="http://www.w3.org/2000/svg">
<circle cx="36" cy="36" r="36" fill="#FDFDFD"/>
<path d="M48.8829 42.1966L44.8586 32.7852C44.1257 31.0624 43.0329 30.0852 41.7857 30.0209C40.5514 29.9566 39.3557 30.8181 38.4429 32.4638L36 36.8481C35.4857 37.7738 34.7529 38.3266 33.9557 38.3909C33.1457 38.4681 32.3357 38.0438 31.68 37.2081L31.3972 36.8481C30.4843 35.7038 29.3529 35.1509 28.1957 35.2666C27.0386 35.3824 26.0486 36.1795 25.3929 37.4781L23.1686 41.9138C22.3714 43.5209 22.4486 45.3852 23.3872 46.9024C24.3257 48.4195 25.9586 49.3324 27.7457 49.3324H44.1514C45.8743 49.3324 47.4814 48.4709 48.4329 47.0309C49.41 45.5909 49.5643 43.7781 48.8829 42.1966Z" fill="#9E7BC9"/>
<path d="M29.5328 31.3452C31.9329 31.3452 33.8786 29.3996 33.8786 26.9995C33.8786 24.5995 31.9329 22.6538 29.5328 22.6538C27.1328 22.6538 25.1871 24.5995 25.1871 26.9995C25.1871 29.3996 27.1328 31.3452 29.5328 31.3452Z" fill="#9E7BC9"/>
</svg>
